<svg width="400" height="300" viewBox="0 0 400 300" xmlns="http://www.w3.org/2000/svg">
  <!-- Background clouds -->
  <ellipse cx="200" cy="150" rx="180" ry="80" fill="#f0f0f0" opacity="0.6"/>
  <ellipse cx="150" cy="180" rx="120" ry="50" fill="#f0f0f0" opacity="0.6"/>

  <!-- Dragon body -->
  <path d="M100,150 C120,100 180,80 250,120 S350,150 300,200 S180,220 100,150"
        fill="#d32f2f" stroke="#b71c1c" stroke-width="2"/>

  <!-- Dragon head -->
  <ellipse cx="280" cy="130" rx="40" ry="35" fill="#d32f2f" stroke="#b71c1c" stroke-width="2"/>

  <!-- Dragon eyes -->
  <circle cx="290" cy="125" r="5" fill="#ffeb3b"/>
  <circle cx="285" cy="120" r="3" fill="#000"/>

  <!-- Dragon nose -->
  <path d="M280,140 L285,145 L280,140" fill="#b71c1c"/>

  <!-- Dragon wings -->
  <path d="M150,120 C100,80 80,150 120,180 S200,150 150,120"
        fill="#d32f2f" stroke="#b71c1c" stroke-width="2"/>
  <path d="M180,120 C150,70 100,100 130,160 S220,130 180,120"
        fill="#d32f2f" stroke="#b71c1c" stroke-width="2"/>

  <!-- Dragon tail -->
  <path d="M100,150 C80,160 60,180 90,190 S120,170 100,150"
        fill="#d32f2f" stroke="#b71c1c" stroke-width="2"/>

  <!-- Dragon spikes -->
  <path d="M250,120 L260,110 L265,120 Z" fill="#b71c1c"/>
  <path d="M270,130 L280,120 L285,130 Z" fill="#b71c1c"/>
  <path d="M290,140 L300,130 L305,140 Z" fill="#b71c1c"/>

  <!-- Flying effect - subtle lines -->
  <line x1="120" y1="160" x2="100" y2="150" stroke="#d32f2f" stroke-width="1" opacity="0.3"/>
  <line x1="130" y1="170" x2="110" y2="160" stroke="#d32f2f" stroke-width="1" opacity="0.3"/>
  <line x1="140" y1="180" x2="120" y2="170" stroke="#d32f2f" stroke-width="1" opacity="0.3"/>
</svg>
