<svg width="400" height="300" viewBox="0 0 400 300" xmlns="http://www.w3.org/2000/svg">
  <!-- Background clouds -->
  <ellipse cx="200" cy="150" rx="180" ry="80" fill="#f0f0f0" opacity="0.6"/>
  <ellipse cx="150" cy="180" rx="120" ry="50" fill="#f5f5f5" opacity="0.5"/>

  <!-- Dragon body -->
  <path d="M100,150 C120,120 180,100 250,120 S350,150 300,200 S180,220 100,150"
        fill="#d32f2f" stroke="#b71c1c" stroke-width="2"/>

  <!-- Dragon head -->
  <ellipse cx="280" cy="130" rx="40" ry="35" fill="#d32f2f" stroke="#b71c1c" stroke-width="2"/>

  <!-- Dragon eyes -->
  <circle cx="290" cy="125" r="5" fill="#fff8dc"/>
  <circle cx="295" cy="122" r="3" fill="#000"/>

  <!-- Dragon nose -->
  <path d="M280,140 L285,145 L280,142 Z" fill="#b71c1c"/>

  <!-- Dragon spikes -->
  <path d="M120,130 L110,100 L120,130 Z" fill="#d32f2f" stroke="#b71c1c" stroke-width="1"/>
  <path d="M150,130 L140,100 L150,130 Z" fill="#d32f2f" stroke="#b71c1c" stroke-width="1"/>
  <path d="M180,130 L170,100 L180,130 Z" fill="#d32f2f" stroke="#b71c1c" stroke-width="1"/>

  <!-- Dragon wings -->
  <path d="M150,120 C100,150 80,180 120,200 S200,180 150,120 Z"
        fill="#d32f2f" stroke="#b71c1c" stroke-width="2" opacity="0.9"/>

  <!-- Wing details -->
  <path d="M120,150 C100,170 90,190 120,200 S150,180 120,150 Z"
        fill="#e63946" stroke="#b71c1c" stroke-width="1"/>

  <!-- Flight effect - fire particles -->
  <path d="M80,180 C60,190 40,180 30,190 S10,180 20,170 Z" fill="#ff9e00" opacity="0.8"/>
  <path d="M85,175 C65,185 45,175 35,185 S15,175 25,165 Z" fill="#ff9e00" opacity="0.7"/>

  <!-- Dragon tail -->
  <path d="M100,150 C80,160 60,170 40,180 S10,190 20,170 Z"
        fill="#d32f2f" stroke="#b71c1c" stroke-width="2"/>
</svg>
