<svg width="400" height="300" viewBox="0 0 400 300" xmlns="http://www.w3.org/2000/svg">
  <!-- Background clouds -->
  <ellipse cx="200" cy="150" rx="180" ry="80" fill="#f0f0f0" opacity="0.5"/>
  <ellipse cx="150" cy="180" rx="120" ry="50" fill="#f8f8f8" opacity="0.5"/>

  <!-- Dragon body -->
  <path d="M100,150 C120,120 180,100 250,120 S350,150 300,200 S180,220 100,150"
        fill="#e63946" stroke="#c11232" stroke-width="2"/>

  <!-- Dragon head -->
  <ellipse cx="280" cy="130" rx="40" ry="35" fill="#e63946" stroke="#c11232" stroke-width="2"/>

  <!-- Dragon eyes -->
  <circle cx="290" cy="125" r="5" fill="#f1fa8c"/>
  <circle cx="295" cy="128" r="3" fill="#000"/>

  <!-- Dragon nose -->
  <path d="M295,130 L300,135 M295,130 L290,125" stroke="#000" stroke-width="2" fill="none"/>

  <!-- Dragon wings -->
  <path d="M150,120 C130,80 100,90 80,120 S150,180 150,120" fill="#e63946" stroke="#c11232" stroke-width="2"/>
  <path d="M200,120 C180,70 150,80 130,120 S200,180 200,120" fill="#e63946" stroke="#c11232" stroke-width="2"/>

  <!-- Dragon spikes/tail -->
  <path d="M100,150 C80,140 60,160 50,150" stroke="#c11232" stroke-width="4" fill="none"/>
  <path d="M250,120 C270,100 290,110 300,120" stroke="#c11232" stroke-width="4" fill="none"/>

  <!-- Flying effect - subtle lines -->
  <line x1="120" y1="100" x2="130" y2="90" stroke="#c11232" stroke-width="1" opacity="0.3">
    <animate attributeName="opacity" values="0.3;0.1;0.3" dur="3s" repeatCount="indefinite"/>
  </line>
  <line x1="220" y1="110" x2="230" y2="100" stroke="#c11232" stroke-width="1" opacity="0.3">
    <animate attributeName="opacity" values="0.3;0.1;0.3" dur="4s" repeatCount="indefinite"/>
  </line>
</svg>
