<svg width="400" height="300" viewBox="0 0 400 300" xmlns="http://www.w3.org/2000/svg">
    <!-- Background clouds -->
    <ellipse cx="200" cy="150" rx="180" ry="80" fill="#f0f0f0" opacity="0.6"/>
    <ellipse cx="150" cy="180" rx="120" ry="50" fill="#f0f0f0" opacity="0.5"/>

    <!-- Dragon body -->
    <path d="M100,150 C120,120 180,100 250,120 S350,150 350,180 C350,210 300,220 250,210 S120,180 100,150 Z" fill="#c41e1a"/>

    <!-- Dragon wings -->
    <path d="M150,120 C100,80 50,120 80,150 S150,180 150,120 Z" fill="#c41e1a"/>
    <path d="M250,120 C300,80 350,120 320,150 S250,180 250,120 Z" fill="#c41e1a"/>

    <!-- Dragon spikes -->
    <path d="M100,150 L90,140 M100,150 L110,140 M100,150 L100,130" fill="#c41e1a" stroke="#c41e1a" stroke-width="1"/>
    <path d="M350,180 L340,170 M350,180 L360,170 M350,180 L350,160" fill="#c41e1a" stroke="#c41e1a" stroke-width="1"/>

    <!-- Dragon eyes -->
    <circle cx="180" cy="140" r="10" fill="#ffcc00"/>
    <circle cx="220" cy="140" r="10" fill="#ffcc00"/>
    <circle cx="180" cy="140" r="5" fill="#000000"/>
    <circle cx="220" cy="140" r="5" fill="#000000"/>

    <!-- Dragon nose -->
    <path d="M180,155 L175,165 M180,155 L185,165" fill="#ffcc00"/>
    <path d="M220,155 L215,165 M220,155 L225,165" fill="#ffcc00"/>

    <!-- Flying effect - tail -->
    <path d="M100,150 C80,160 50,150 30,170" fill="none" stroke="#c41e1a" stroke-width="15" opacity="0.7"/>
</svg>
