<svg width="400" height="300" viewBox="0 0 400 300" xmlns="http://www.w3.org/2000/svg">
  <!-- Background clouds -->
  <ellipse cx="200" cy="150" rx="180" ry="80" fill="#f0f0f0" opacity="0.5"/>
  <ellipse cx="150" cy="180" rx="100" ry="50" fill="#f8f8f8" opacity="0.5"/>

  <!-- Dragon body -->
  <path d="M100,150 C120,120 180,100 250,120 S350,150 300,200 S180,220 100,150"
        fill="#e63946" stroke="#c11232" stroke-width="2"/>

  <!-- Dragon head -->
  <ellipse cx="280" cy="130" rx="40" ry="35" fill="#e63946" stroke="#c11232" stroke-width="2"/>

  <!-- Dragon eyes -->
  <circle cx="290" cy="125" r="5" fill="white"/>
  <circle cx="295" cy="122" r="3" fill="black"/>

  <!-- Dragon nose -->
  <path d="M295,130 L300,135 M295,130 L290,125" stroke="black" stroke-width="2" fill="none"/>

  <!-- Dragon wings -->
  <path d="M180,120 C150,80 120,100 100,120 S150,160 180,120" fill="#e63946" stroke="#c11232" stroke-width="2"/>
  <path d="M250,120 C280,70 320,90 350,120 S300,150 250,120" fill="#e63946" stroke="#c11232" stroke-width="2"/>

  <!-- Wing details -->
  <path d="M150,100 C140,90 130,95 120,100 S140,110 150,100" fill="#e63946" stroke="#c11232" stroke-width="1"/>
  <path d="M320,100 C330,90 340,95 350,100 S330,110 320,100" fill="#e63946" stroke="#c11232" stroke-width="1"/>

  <!-- Dragon tail -->
  <path d="M100,150 C80,160 60,150 40,170 S60,180 100,150" fill="none" stroke="#c11232" stroke-width="3"/>

  <!-- Smoke effect -->
  <ellipse cx="150" cy="80" rx="20" ry="10" fill="#f0f0f0" opacity="0.7"/>
  <ellipse cx="170" cy="70" rx="15" ry="8" fill="#f0f0f0" opacity="0.5"/>
  <ellipse cx="190" cy="65" rx="10" ry="5" fill="#f0f0f0" opacity="0.3"/>
</svg>
