<svg width="400" height="300" viewBox="0 0 400 300" xmlns="http://www.w3.org/2000/svg">
  <!-- Background clouds -->
  <ellipse cx="200" cy="150" rx="180" ry="80" fill="#f0f0f0" opacity="0.5"/>
  <ellipse cx="150" cy="180" rx="100" ry="50" fill="#f8f8f8" opacity="0.5"/>

  <!-- Dragon body -->
  <path d="M100,150 C120,120 180,100 250,120 S350,150 300,200 S180,220 100,150"
        fill="#e63946" stroke="#c11232" stroke-width="2"/>

  <!-- Dragon head -->
  <ellipse cx="280" cy="130" rx="40" ry="35" fill="#e63946" stroke="#c11232" stroke-width="2"/>

  <!-- Dragon eyes -->
  <circle cx="290" cy="125" r="5" fill="white"/>
  <circle cx="295" cy="122" r="3" fill="black"/>

  <!-- Dragon nose -->
  <path d="M295,130 L300,135 M295,130 L290,125" stroke="black" stroke-width="2" fill="none"/>

  <!-- Dragon wings -->
  <path d="M180,120 C150,80 120,100 100,120 S150,160 180,120" fill="#e63946" stroke="#c11232" stroke-width="2"/>
  <path d="M250,120 C280,70 320,90 350,120 S300,160 250,120" fill="#e63946" stroke="#c11232" stroke-width="2"/>

  <!-- Wing details -->
  <path d="M150,100 C140,90 130,95 120,100 S140,110 150,100" fill="#e63946" stroke="#c11232" stroke-width="1"/>
  <path d="M320,100 C330,90 340,95 350,100 S330,110 320,100" fill="#e63946" stroke="#c11232" stroke-width="1"/>

  <!-- Dragon tail -->
  <path d="M100,150 C80,140 60,160 50,180 S70,200 100,150" fill="none" stroke="#c11232" stroke-width="4"/>

  <!-- Flame effect from mouth -->
  <path d="M280,160 C290,170 300,165 310,175 S295,180 280,160" fill="#ff9e00" opacity="0.8"/>
  <path d="M285,165 C295,175 305,170 315,180 S300,185 285,165" fill="#ff9e00" opacity="0.6"/>
</svg>
